<svg version="1.1" id="ha-logo" xmlns="http://www.w3.org/2000/svg" xmlns:xlink="http://www.w3.org/1999/xlink" x="0px" y="0px"
	 width="800px" height="800px" viewBox="0 0 800 800" enable-background="new 0 0 800 800" xml:space="preserve">
<g>
	<path fill="var(--text-secondary)" d="M217.368,629.548h-8.988v64.212h38.637v-7.783h-29.649V629.548z M310.486,629.548
		c-1.668,2.72-3.46,5.932-5.374,9.639c-1.916,3.705-3.831,7.582-5.744,11.627c-1.916,4.047-3.769,8.093-5.56,12.137
		c-1.793,4.05-3.428,7.739-4.911,11.074c-1.481-3.335-3.12-7.024-4.91-11.074c-1.792-4.044-3.646-8.09-5.559-12.137
		c-1.917-4.045-3.831-7.922-5.745-11.627c-1.916-3.707-3.706-6.919-5.374-9.639h-7.876c-0.556,4.636-1.066,9.544-1.529,14.733
		c-0.464,5.188-0.896,10.518-1.297,15.983c-0.403,5.467-0.757,11.027-1.066,16.679c-0.31,5.652-0.588,11.258-0.834,16.816h8.803
		c0.308-8.648,0.679-17.219,1.111-25.712c0.431-8.492,0.987-16.384,1.667-23.673c0.617,1.05,1.437,2.563,2.456,4.54
		c1.019,1.977,2.115,4.215,3.289,6.718c1.173,2.5,2.424,5.158,3.753,7.967c1.327,2.812,2.578,5.545,3.752,8.2
		c1.173,2.658,2.271,5.128,3.29,7.413c1.02,2.285,1.837,4.169,2.455,5.651h7.228c0.617-1.482,1.436-3.366,2.455-5.651
		c1.02-2.285,2.115-4.755,3.29-7.413c1.173-2.655,2.423-5.389,3.752-8.2c1.328-2.809,2.579-5.467,3.753-7.967
		c1.172-2.503,2.271-4.741,3.29-6.718c1.019-1.977,1.837-3.49,2.455-4.54c0.68,7.289,1.235,15.181,1.668,23.673
		c0.431,8.493,0.802,17.063,1.111,25.712h8.802c-1.051-22.113-2.625-43.516-4.725-64.212H310.486z M284.79,618.854
		c4.281-1.817,7.825-4.301,10.637-7.458c2.809-3.156,4.885-6.896,6.227-11.222c1.34-4.321,2.01-8.994,2.01-14.01v-56.43h-12.583
		v55.003c0,4.498-0.519,8.367-1.557,11.609c-1.038,3.244-2.509,5.904-4.411,7.978c-1.903,2.077-4.173,3.614-6.81,4.605
		c-2.639,0.995-5.558,1.492-8.757,1.492c-6.4,0-11.589-2.029-15.566-6.098c-3.979-4.063-5.968-10.593-5.968-19.587v-55.003h-12.583
		v56.43c0,5.016,0.669,9.688,2.01,14.01c1.34,4.325,3.393,8.065,6.162,11.222c2.766,3.157,6.312,5.641,10.638,7.458
		c4.322,1.817,9.424,2.724,15.306,2.724C275.427,621.578,280.509,620.672,284.79,618.854z M302.09,397.016
		c0,0-17.971-5.24-27.989,7.622c-10.019,12.863-11.132,25.887-6.361,25.41c4.77-0.476,17.015-2.064,36.894,3.812
		c19.878,5.876,59.158,23.504,59.158,23.504s7.315,4.447,13.994-3.176c6.679-7.623,10.496-24.299-13.994-34.304L302.09,397.016z
		 M346.211,621.578c10.462,0,18.57-2.118,24.322-6.354c5.75-4.237,8.627-10.291,8.627-18.162c0-4.235-0.649-7.849-1.947-10.83
		c-1.296-2.985-3.136-5.558-5.513-7.719c-2.38-2.162-5.189-4.022-8.432-5.58c-3.243-1.555-6.811-3.111-10.703-4.669
		c-2.769-1.037-5.298-2.075-7.589-3.114c-2.292-1.037-4.304-2.182-6.031-3.438c-1.732-1.252-3.071-2.7-4.022-4.346
		c-0.952-1.642-1.428-3.673-1.428-6.097c0-2.159,0.455-4.04,1.363-5.642c0.908-1.601,2.14-2.921,3.697-3.957
		c1.557-1.037,3.373-1.817,5.449-2.334c2.076-0.52,4.324-0.78,6.745-0.78c4.755,0,8.929,0.542,12.519,1.622
		c3.587,1.083,6.291,2.185,8.107,3.309l4.021-10.248c-2.075-1.382-5.341-2.66-9.794-3.827c-4.455-1.167-9.405-1.751-14.854-1.751
		c-9.427,0-16.821,2.206-22.182,6.615c-5.363,4.411-8.043,10.553-8.043,18.422c0,3.807,0.627,7.05,1.882,9.729
		c1.252,2.681,2.96,4.995,5.124,6.939c2.161,1.945,4.712,3.633,7.654,5.059c2.939,1.428,6.052,2.703,9.339,3.827
		c2.854,1.038,5.555,2.075,8.108,3.113c2.549,1.038,4.82,2.27,6.81,3.696c1.988,1.428,3.568,3.115,4.734,5.06
		c1.168,1.945,1.752,4.304,1.752,7.07c0,8.996-6.573,13.491-19.717,13.491c-5.882,0-10.854-0.692-14.918-2.076
		c-4.066-1.382-7.092-2.638-9.081-3.762l-3.762,10.379c0.95,0.517,2.271,1.146,3.958,1.88c1.686,0.736,3.697,1.426,6.032,2.074
		c2.335,0.649,4.994,1.213,7.977,1.689C339.401,621.34,342.664,621.578,346.211,621.578z M213.769,619.633v-89.897h-12.583v37.491
		H157.21v-37.491h-12.583v89.897h12.583v-41.512h43.976v41.512H213.769z M499.447,397.193l-61.607,22.859
		c-24.453,10.001-20.641,26.669-13.972,34.288c6.668,7.619,13.972,3.174,13.972,3.174s39.22-17.618,59.066-23.492
		c19.85-5.875,32.074-4.286,36.838-3.81c4.765,0.477,3.652-12.541-6.352-25.4C517.391,391.955,499.447,397.193,499.447,397.193z
		 M186.375,658.457c-2.07-5.187-4.123-10.145-6.162-14.87c-2.038-4.726-4.169-9.403-6.393-14.039h-8.246
		c-2.224,4.636-4.355,9.313-6.394,14.039c-2.038,4.726-4.093,9.684-6.161,14.87c-2.07,5.188-4.185,10.671-6.348,16.446
		c-2.162,5.776-4.479,12.063-6.949,18.856h9.358l5.838-16.399h29.094c0.987,2.779,1.946,5.514,2.873,8.199
		c0.926,2.688,1.914,5.42,2.965,8.2h9.821c-2.471-6.794-4.787-13.08-6.949-18.856C190.559,669.128,188.444,663.646,186.375,658.457z
		 M157.513,669.946c1.913-5.374,3.845-10.576,5.79-15.612c1.946-5.032,4-9.867,6.162-14.5c2.099,4.633,4.123,9.468,6.069,14.5
		c1.945,5.036,3.906,10.238,5.884,15.612H157.513z M661.796,507.204H139.205v4.819h522.591V507.204z M561.937,529.735h-12.584
		v89.897h12.584V529.735z M205.807,380.158l-0.643,3.518c0,0-21.796,98.673,38.837,99.097h11.017c0,0-0.047,9.048,0.245,20.724
		h7.441c-0.624-14.952-0.689-27.711-0.689-27.711h-11.017c-57.487-0.403-39.735-82.83-37.739-91.382
		c20.32,9.383,43.667,10.706,43.667,10.706s-3.173-72.191,30.484-93.728c-7.063,10.104-16.618,27.038-20.305,48.626
		c-6.149,35.997-5.089,45.102-5.089,45.102s14.578-85.277,65.833-97.121c22.227,6.595,29.582,23.433,29.582,23.433l86.762,0.21
		c0,0,7.346-16.832,29.538-23.424c51.176,11.84,65.731,97.08,65.731,97.08s1.058-9.102-5.082-45.083
		c-3.682-21.579-13.224-38.506-20.274-48.605c33.606,21.525,30.437,93.688,30.437,93.688s23.312-1.323,43.601-10.702
		c1.995,8.551,19.716,90.943-37.681,91.341h-11c0,0-0.064,12.681-0.682,27.568h7.426c0.29-11.607,0.241-20.583,0.241-20.583h11.001
		c60.539-0.423,38.778-99.055,38.778-99.055l-0.645-3.516c10.327-8.254,12.473-24.422,12.473-24.422l-13.972,8.254
		c0,0,39.377-89.531-22.865-170.807c-62.241-81.275-127.457-90.737-170.213-73.316c-44.476-17.154-108.456-8.259-170.794,73.052
		c-62.337,81.31-22.899,170.879-22.899,170.879l-13.994-8.258C193.317,355.725,195.464,371.9,205.807,380.158z M644.05,596.283
		c-2.77-4.582-6.163-9.813-10.185-15.696c-4.021-5.88-8.302-11.869-12.842-17.967s-9.124-12.02-13.75-17.771
		c-4.627-5.75-8.974-10.786-13.037-15.113h-9.989v89.897h12.323v-70.179c2.421,2.77,5.061,5.966,7.914,9.601
		c2.853,3.631,5.794,7.503,8.821,11.609c3.026,4.107,6.075,8.366,9.146,12.777c3.068,4.41,6.031,8.756,8.885,13.038
		c2.854,4.28,5.515,8.409,7.979,12.387c2.463,3.978,4.647,7.568,6.55,10.767h10.508v-89.897H644.05V596.283z M558.615,663.833
		h26.869v-7.506h-26.869V637.24h30.205v-7.692h-39.193v64.212h41.51v-7.689h-32.521V663.833z M386.833,636.546
		c-2.78-2.813-6.008-4.927-9.682-6.349c-3.676-1.42-7.584-2.129-11.721-2.129c-4.201,0-8.17,0.709-11.906,2.129
		c-3.738,1.422-7.012,3.536-9.821,6.349c-2.812,2.811-5.035,6.315-6.671,10.516c-1.637,4.202-2.455,9.05-2.455,14.546
		c0,5.5,0.818,10.348,2.455,14.548c1.636,4.201,3.86,7.705,6.671,10.517c2.81,2.812,6.083,4.927,9.821,6.347
		c3.736,1.421,7.705,2.132,11.906,2.132c4.137,0,8.045-0.711,11.721-2.132c3.674-1.42,6.902-3.535,9.682-6.347
		c2.78-2.812,4.988-6.315,6.625-10.517c1.636-4.2,2.456-9.048,2.456-14.548c0-5.496-0.82-10.344-2.456-14.546
		C391.821,642.861,389.613,639.356,386.833,636.546z M384.887,672.218c-0.988,3.182-2.395,5.884-4.216,8.106
		c-1.823,2.224-4.03,3.938-6.625,5.143c-2.594,1.205-5.529,1.807-8.803,1.807c-3.274,0-6.224-0.602-8.848-1.807
		c-2.626-1.204-4.851-2.919-6.672-5.143c-1.822-2.223-3.228-4.925-4.216-8.106c-0.988-3.18-1.481-6.718-1.481-10.61
		c0-3.891,0.494-7.426,1.481-10.609c0.988-3.181,2.394-5.883,4.216-8.106c1.821-2.223,4.046-3.937,6.672-5.143
		c2.624-1.203,5.573-1.806,8.848-1.806c3.274,0,6.208,0.603,8.803,1.806c2.595,1.206,4.802,2.92,6.625,5.143
		c1.821,2.224,3.228,4.926,4.216,8.106c0.987,3.184,1.483,6.719,1.483,10.609C386.37,665.5,385.875,669.038,384.887,672.218z
		 M111.777,514.617v4.818h577.444v-4.818H111.777z M415.222,621.578c10.465,0,18.57-2.118,24.324-6.354
		c5.75-4.237,8.626-10.291,8.626-18.162c0-4.235-0.649-7.849-1.946-10.83c-1.296-2.985-3.137-5.558-5.514-7.719
		c-2.379-2.162-5.189-4.022-8.432-5.58c-3.244-1.555-6.81-3.111-10.701-4.669c-2.77-1.037-5.299-2.075-7.589-3.114
		c-2.294-1.037-4.304-2.182-6.032-3.438c-1.73-1.252-3.07-2.7-4.021-4.346c-0.953-1.642-1.428-3.673-1.428-6.097
		c0-2.159,0.454-4.04,1.363-5.642c0.909-1.601,2.141-2.921,3.697-3.957c1.557-1.037,3.373-1.817,5.446-2.334
		c2.077-0.52,4.325-0.78,6.747-0.78c4.755,0,8.929,0.542,12.518,1.622c3.589,1.083,6.292,2.185,8.108,3.309l4.021-10.248
		c-2.074-1.382-5.34-2.66-9.792-3.827c-4.456-1.167-9.406-1.751-14.854-1.751c-9.427,0-16.821,2.206-22.182,6.615
		c-5.363,4.411-8.043,10.553-8.043,18.422c0,3.807,0.626,7.05,1.881,9.729c1.253,2.681,2.961,4.995,5.124,6.939
		c2.162,1.945,4.713,3.633,7.654,5.059c2.938,1.428,6.052,2.703,9.339,3.827c2.854,1.038,5.556,2.075,8.109,3.113
		c2.55,1.038,4.819,2.27,6.81,3.696c1.988,1.428,3.567,3.115,4.734,5.06c1.168,1.945,1.752,4.304,1.752,7.07
		c0,8.996-6.575,13.491-19.719,13.491c-5.882,0-10.854-0.692-14.917-2.076c-4.066-1.382-7.092-2.638-9.081-3.762l-3.763,10.379
		c0.951,0.517,2.271,1.146,3.957,1.88c1.686,0.736,3.697,1.426,6.032,2.074c2.334,0.649,4.993,1.213,7.979,1.689
		C408.413,621.34,411.676,621.578,415.222,621.578z M518.546,570.208c-2.898-7.263-5.772-14.202-8.627-20.819
		c-2.854-6.615-5.838-13.168-8.95-19.653h-11.546c-3.113,6.485-6.098,13.038-8.951,19.653c-2.854,6.617-5.729,13.557-8.626,20.819
		c-2.899,7.265-5.86,14.941-8.888,23.028c-3.026,8.086-6.271,16.884-9.728,26.396h13.102l8.174-22.96h40.731
		c1.383,3.893,2.725,7.718,4.021,11.48c1.297,3.762,2.68,7.587,4.15,11.479h13.751c-3.459-9.513-6.703-18.311-9.729-26.396
		C524.403,585.149,521.44,577.473,518.546,570.208z M478.138,586.296c2.679-7.525,5.383-14.811,8.107-21.859
		c2.724-7.048,5.597-13.815,8.626-20.302c2.939,6.486,5.773,13.254,8.495,20.302c2.726,7.049,5.471,14.334,8.238,21.859H478.138z
		 M446.921,658.457c-2.071-5.187-4.124-10.145-6.161-14.87c-2.039-4.726-4.171-9.403-6.395-14.039h-8.246
		c-2.223,4.636-4.354,9.313-6.393,14.039s-4.094,9.684-6.162,14.87c-2.071,5.188-4.186,10.671-6.347,16.446
		c-2.162,5.776-4.479,12.063-6.95,18.856h9.358l5.838-16.399h29.095c0.986,2.779,1.945,5.514,2.872,8.199
		c0.926,2.688,1.913,5.42,2.964,8.2h9.822c-2.472-6.794-4.789-13.08-6.949-18.856C451.105,669.128,448.989,663.646,446.921,658.457z
		 M418.059,669.946c1.913-5.374,3.845-10.576,5.791-15.612c1.946-5.032,3.999-9.867,6.162-14.5c2.098,4.633,4.123,9.468,6.068,14.5
		c1.945,5.036,3.905,10.238,5.884,15.612H418.059z M522.943,629.548c-1.668,2.72-3.461,5.932-5.374,9.639
		c-1.913,3.705-3.83,7.582-5.744,11.627c-1.916,4.047-3.768,8.093-5.56,12.137c-1.793,4.05-3.429,7.739-4.91,11.074
		c-1.483-3.335-3.12-7.024-4.911-11.074c-1.793-4.044-3.645-8.09-5.56-12.137c-1.914-4.045-3.831-7.922-5.744-11.627
		c-1.915-3.707-3.706-6.919-5.374-9.639h-7.876c-0.555,4.636-1.064,9.544-1.528,14.733c-0.464,5.188-0.896,10.518-1.297,15.983
		c-0.404,5.467-0.759,11.027-1.066,16.679c-0.311,5.652-0.587,11.258-0.833,16.816h8.801c0.309-8.648,0.68-17.219,1.112-25.712
		c0.432-8.492,0.989-16.384,1.667-23.673c0.618,1.05,1.438,2.563,2.455,4.54c1.021,1.977,2.117,4.215,3.29,6.718
		c1.174,2.5,2.424,5.158,3.753,7.967c1.327,2.812,2.578,5.545,3.753,8.2c1.172,2.658,2.271,5.128,3.288,7.413
		c1.021,2.285,1.838,4.169,2.457,5.651h7.226c0.618-1.482,1.438-3.366,2.456-5.651c1.02-2.285,2.115-4.755,3.289-7.413
		c1.172-2.655,2.424-5.389,3.753-8.2c1.327-2.809,2.579-5.467,3.752-7.967c1.174-2.503,2.27-4.741,3.29-6.718s1.837-3.49,2.455-4.54
		c0.679,7.289,1.236,15.181,1.667,23.673c0.433,8.493,0.804,17.063,1.111,25.712h8.804c-1.051-22.113-2.627-43.516-4.726-64.212
		H522.943z M645.248,677.082c-1.977-3.274-4.401-7.011-7.273-11.211c-2.872-4.201-5.931-8.479-9.174-12.833
		c-3.241-4.354-6.518-8.587-9.82-12.694c-3.307-4.108-6.41-7.704-9.313-10.796h-7.135v64.212h8.802v-50.127
		c1.729,1.978,3.614,4.262,5.652,6.857c2.038,2.594,4.138,5.358,6.301,8.291c2.161,2.936,4.339,5.978,6.533,9.128
		c2.192,3.15,4.309,6.253,6.346,9.311c2.04,3.058,3.938,6.009,5.699,8.851c1.761,2.84,3.318,5.404,4.679,7.689h7.506v-64.212h-8.803
		V677.082z"/>
</g>
</svg>
